<svg width="100%" min-height="0" viewBox="0 0 309 64" fill="none"
    xmlns="http://www.w3.org/2000/svg">
    <g id="Innovatik">
        <g id="text">
            <path id="Vector" d="M83.214 17.129H89.042V46.712H83.214V17.129Z" fill="black" />
            <path id="Vector_2" d="M100.858 29.146L101.259 31.961C101.875 30.861 102.747 29.978 103.871 29.308C104.997 28.638 106.364 28.303 107.972 28.303C109.633 28.303 111.02 28.793 112.131 29.771C113.242 30.748 113.813 32.015 113.84 33.568V46.712H108.214V35.658C108.186 34.882 107.978 34.258 107.59 33.788C107.202 33.319 106.552 33.085 105.642 33.085C104.328 33.085 103.289 33.696 102.527 34.915C101.763 36.135 101.381 37.682 101.381 39.558V46.712H95.754V29.146H100.858Z" fill="black" />
            <path id="Vector_3" d="M124.732 29.146L125.133 31.961C125.749 30.861 126.621 29.978 127.745 29.308C128.871 28.638 130.238 28.303 131.846 28.303C133.507 28.303 134.894 28.793 136.005 29.771C137.116 30.749 137.687 32.015 137.714 33.568V46.712H132.088V35.658C132.06 34.882 131.852 34.258 131.464 33.788C131.076 33.319 130.426 33.085 129.516 33.085C128.202 33.085 127.163 33.696 126.401 34.915C125.637 36.135 125.255 37.682 125.255 39.558V46.712H119.629V29.146H124.732Z" fill="black" />
            <path id="Vector_4" d="M142.134 37.709C142.134 35.914 142.557 34.306 143.4 32.884C144.244 31.464 145.429 30.346 146.956 29.529C148.485 28.712 150.238 28.302 152.223 28.302C154.232 28.302 155.974 28.711 157.447 29.529C158.921 30.346 160.054 31.464 160.843 32.884C161.634 34.306 162.03 35.914 162.03 37.709C162.03 39.504 161.634 41.118 160.843 42.551C160.054 43.986 158.921 45.118 157.447 45.947C155.974 46.777 154.204 47.193 152.142 47.193C150.212 47.193 148.49 46.818 146.978 46.067C145.464 45.317 144.277 44.233 143.42 42.813C142.563 41.394 142.134 39.691 142.134 37.709ZM147.801 37.748C147.801 39.141 148.202 40.3 149.006 41.225C149.81 42.15 150.829 42.612 152.06 42.612C153.373 42.612 154.418 42.15 155.195 41.225C155.972 40.3 156.361 39.141 156.361 37.748C156.361 36.355 155.973 35.196 155.195 34.271C154.417 33.346 153.372 32.883 152.06 32.883C150.828 32.883 149.81 33.345 149.006 34.271C148.203 35.196 147.801 36.355 147.801 37.748Z" fill="black" />
            <path id="Vector_5" d="M173.887 47.073L163.355 29.146H170.028L174.127 37.507L177.744 29.146H184.014L174.045 47.073H173.887V47.073Z" fill="black" />
            <path id="Vector_6" d="M193.901 47.193C192.267 47.193 190.787 46.864 189.46 46.209C188.134 45.552 187.083 44.54 186.305 43.175C185.527 41.808 185.139 40.066 185.139 37.95C185.139 35.967 185.542 34.252 186.344 32.805C187.148 31.357 188.206 30.239 189.52 29.449C190.833 28.658 192.226 28.264 193.699 28.264C195.442 28.264 196.761 28.545 197.659 29.108C198.557 29.671 199.274 30.287 199.81 30.957L200.172 29.148H205.397V46.713H199.771V44.54C199.502 44.809 199.107 45.157 198.584 45.585C198.062 46.014 197.412 46.389 196.636 46.711C195.859 47.033 194.946 47.193 193.901 47.193ZM195.51 42.612C197.466 42.612 198.886 41.727 199.771 39.959V35.658C199.449 34.801 198.893 34.117 198.102 33.608C197.311 33.1 196.38 32.844 195.308 32.844C194.103 32.844 193.058 33.293 192.173 34.192C191.29 35.09 190.847 36.247 190.847 37.667C190.847 38.606 191.062 39.45 191.491 40.2C191.919 40.951 192.488 41.541 193.198 41.968C193.908 42.397 194.679 42.612 195.51 42.612Z" fill="black" />
            <path id="Vector_7" d="M210.101 17.129H230.035V22.757H222.842V46.712H217.014V22.757H210.101V17.129V17.129Z" fill="black" />
            <path id="Vector_8" d="M235.663 17.129H241.491V46.712H235.663V17.129Z" fill="black" />
            <path id="Vector_9" d="M255.034 27.66L254.874 29.146L255.759 28.022L265.404 17.129H272.96L260.741 30.393L273 46.711H265.605L256.482 34.09L255.034 35.537V46.711H249.127V17.129H255.034V27.66Z" fill="black" />
        </g>
        <g id="all-tok">
            <g id="back">
                <path id="Vector_10" d="M49.773 35.773V8.818C49.774 8.792 49.779 8.413 49.668 7.87L49.25 5.808L60.74 17.297C61.683 18.241 62.324 19.423 62.596 20.714L62.6 20.739C62.642 20.984 62.705 21.642 62.396 22.458C62.004 23.499 61.335 24.21 61.206 24.341L49.773 35.773ZM51.04 9.391L51.041 32.713L60.302 23.452C60.362 23.391 60.9 22.83 61.209 22.011C61.411 21.477 61.367 21.064 61.351 20.962C61.129 19.918 60.607 18.961 59.842 18.195L51.04 9.391Z" fill="#69C9D0" />
                <path id="Vector_11" d="M11 38.398V22.143C11 20.813 11.381 19.524 12.104 18.415L12.118 18.395C12.26 18.193 12.679 17.684 13.478 17.321C14.535 16.846 15.546 16.831 15.658 16.831H31.82L12.76 35.891C12.663 35.987 12.424 36.243 12.164 36.637L11 38.398ZM13.159 19.118C12.575 20.018 12.267 21.064 12.267 22.143V34.59L28.759 18.1H15.662C15.623 18.1 14.827 18.104 13.999 18.476C13.477 18.714 13.219 19.036 13.159 19.118Z" fill="#69C9D0" />
                <path id="Vector_12" d="M45.703 55.781C45.384 55.781 44.944 55.733 44.438 55.545L44.434 55.543C43.346 55.13 42.624 54.424 42.544 54.344L31.121 42.922H58.077C58.164 42.934 58.523 42.922 59.021 42.816L61.1 42.383L49.598 53.888C48.657 54.829 47.475 55.471 46.18 55.742C46.097 55.757 45.931 55.781 45.703 55.781ZM44.882 54.357C45.476 54.577 45.915 54.497 45.933 54.499C46.973 54.281 47.935 53.759 48.702 52.992L57.502 44.191H34.182L43.442 53.45C43.467 53.475 44.029 54.033 44.882 54.357Z" fill="#69C9D0" />
                <path id="Vector_13" d="M24.494 54.231L13.007 42.747C12.067 41.804 11.425 40.622 11.153 39.329C11.106 39.058 11.043 38.398 11.353 37.582C11.764 36.494 12.471 35.771 12.55 35.692L23.974 24.27V51.225C23.973 51.25 23.969 51.629 24.079 52.173L24.494 54.231ZM22.706 27.331L13.443 36.59C13.42 36.615 12.86 37.178 12.537 38.031C12.327 38.586 12.383 39.013 12.397 39.093C12.614 40.12 13.137 41.082 13.904 41.85L22.707 50.651L22.706 27.331Z" fill="#69C9D0" />
                <path id="Vector_14" d="M58.477 43.211H41.928L60.988 24.15C61.041 24.098 61.299 23.833 61.585 23.405L62.746 21.657V37.9C62.746 39.234 62.365 40.522 61.642 41.628C61.487 41.849 61.067 42.361 60.267 42.721C59.886 42.893 59.283 43.102 58.491 43.182L58.477 43.211ZM44.988 41.943L58.104 41.94C58.859 41.902 59.413 41.715 59.746 41.565C60.29 41.321 60.547 40.982 60.593 40.916C61.168 40.036 61.478 38.986 61.478 37.9V25.452L44.988 41.943Z" fill="#69C9D0" />
                <path id="Vector_15" d="M45.241 55.894H28.996C27.664 55.894 26.374 55.513 25.266 54.79L25.247 54.777C25.045 54.633 24.536 54.216 24.176 53.42C23.697 52.355 23.685 51.345 23.685 51.234V35.077L42.745 54.134C42.757 54.146 43.027 54.425 43.49 54.732L45.241 55.894ZM25.969 53.734C26.869 54.317 27.915 54.626 28.995 54.626H41.442L24.951 38.137V51.232C24.951 51.242 24.954 52.061 25.329 52.895C25.566 53.417 25.888 53.675 25.969 53.734Z" fill="#69C9D0" />
                <path id="Vector_16" d="M50.064 24.969L29.266 4.147H44.752C46.084 4.147 47.373 4.529 48.48 5.252C48.654 5.373 49.198 5.797 49.573 6.626C50.052 7.687 50.063 8.698 50.063 8.81V24.969H50.064ZM32.326 5.415L48.796 21.904V8.808C48.796 8.774 48.794 7.98 48.418 7.15C48.165 6.589 47.811 6.331 47.772 6.304C46.888 5.727 45.839 5.416 44.753 5.416H32.326V5.415Z" fill="#69C9D0" />
            </g>
            <g id="mid">
                <path id="Vector_17" d="M54.624 37.773V10.817C54.624 10.798 54.63 10.416 54.518 9.869L54.1 7.808L65.59 19.297C66.532 20.241 67.173 21.423 67.445 22.714L67.451 22.742C67.491 22.989 67.553 23.649 67.245 24.458C66.853 25.499 66.184 26.21 66.055 26.341L54.624 37.773ZM55.891 11.392V34.712L65.151 25.451C65.211 25.39 65.749 24.829 66.058 24.01C66.258 23.483 66.216 23.066 66.2 22.959C65.977 21.915 65.455 20.959 64.692 20.193L55.891 11.392Z" fill="#010101" />
                <path id="Vector_18" d="M15.851 40.403V24.143C15.851 22.811 16.233 21.523 16.955 20.415L16.967 20.398C17.077 20.24 17.5 19.697 18.327 19.322C19.384 18.847 20.396 18.832 20.507 18.832H36.669L17.609 37.892C17.513 37.988 17.273 38.244 17.014 38.637L15.851 40.403ZM18.01 21.117C17.427 22.016 17.118 23.062 17.118 24.142V36.589L33.608 20.099H20.512C20.473 20.099 19.677 20.103 18.849 20.475C18.316 20.718 18.056 21.053 18.01 21.117Z" fill="#010101" />
                <path id="Vector_19" d="M50.553 57.781C50.234 57.781 49.794 57.733 49.288 57.545L49.284 57.543C48.197 57.13 47.474 56.424 47.394 56.344L35.971 44.921H62.927C63.009 44.926 63.373 44.921 63.871 44.815L65.95 44.382L54.448 55.887C53.508 56.828 52.326 57.47 51.03 57.741C50.947 57.756 50.781 57.781 50.553 57.781ZM49.733 56.358C50.326 56.576 50.762 56.497 50.782 56.498C51.823 56.28 52.785 55.757 53.55 54.991L62.35 46.19H39.032L48.292 55.449C48.299 55.456 48.88 56.032 49.733 56.358Z" fill="#010101" />
                <path id="Vector_20" d="M29.349 56.234L17.857 44.746C16.916 43.803 16.275 42.623 16.002 41.328C15.956 41.052 15.896 40.392 16.202 39.581C16.613 38.493 17.32 37.77 17.399 37.691L28.824 26.269V53.224C28.824 53.242 28.818 53.625 28.93 54.172L29.349 56.234ZM27.556 29.33L18.293 38.59C18.27 38.615 17.71 39.178 17.387 40.031C17.179 40.582 17.234 41.015 17.247 41.096C17.464 42.12 17.987 43.082 18.753 43.85L27.555 52.65V29.33H27.556Z" fill="#010101" />
                <path id="Vector_21" d="M63.358 45.21H46.778L65.838 26.149C65.85 26.138 66.127 25.867 66.436 25.404L67.597 23.656V39.899C67.597 41.231 67.215 42.521 66.493 43.627C66.338 43.848 65.918 44.36 65.118 44.72C64.742 44.89 64.15 45.096 63.372 45.179L63.358 45.21ZM49.839 43.942L62.955 43.939C63.709 43.901 64.264 43.714 64.596 43.564C65.139 43.32 65.397 42.981 65.443 42.915C66.018 42.033 66.329 40.985 66.329 39.899V27.451L49.839 43.942Z" fill="#010101" />
                <path id="Vector_22" d="M50.091 57.893H33.845C32.513 57.893 31.223 57.512 30.115 56.789L30.098 56.776C29.896 56.634 29.386 56.218 29.024 55.417C28.545 54.354 28.533 53.343 28.533 53.233V37.076L47.594 56.133C47.61 56.15 47.873 56.422 48.339 56.731L50.091 57.893ZM30.819 55.733C31.718 56.316 32.764 56.625 33.845 56.625H46.293L29.801 40.137V53.232C29.801 53.242 29.804 54.061 30.18 54.895C30.417 55.42 30.74 55.676 30.819 55.733Z" fill="#010101" />
                <path id="Vector_23" d="M54.913 26.968L34.116 6.147H49.603C50.935 6.147 52.223 6.529 53.331 7.252C53.506 7.374 54.05 7.8 54.423 8.626C54.902 9.687 54.913 10.698 54.913 10.81V26.968V26.968ZM37.175 7.415L53.645 23.904V10.807C53.645 10.773 53.643 9.979 53.267 9.149C53.015 8.59 52.659 8.329 52.62 8.302C51.737 7.726 50.688 7.415 49.603 7.415H37.175V7.415Z" fill="#010101" />
            </g>
            <g id="front">
                <path id="seven" d="M59.704 28.927L38.907 8.105H54.394C55.724 8.105 57.012 8.487 58.121 9.21C58.296 9.331 58.84 9.755 59.214 10.585C59.693 11.644 59.704 12.656 59.704 12.768V28.927ZM41.966 9.373L58.436 25.863V12.765C58.436 12.732 58.434 11.937 58.058 11.108C57.805 10.546 57.452 10.287 57.412 10.26C56.526 9.683 55.476 9.372 54.393 9.372H41.966V9.373Z" fill="#EE1D52" />
                <path id="six" d="M59.415 39.731V12.776C59.415 12.756 59.421 12.374 59.31 11.829L58.887 9.76199L70.381 21.255C71.323 22.198 71.965 23.38 72.237 24.672L72.241 24.697C72.283 24.942 72.346 25.601 72.036 26.416C71.659 27.416 71.034 28.106 70.851 28.294L59.415 39.731ZM60.683 13.351V36.67L69.944 27.41C70.042 27.308 70.552 26.76 70.85 25.968C71.053 25.434 71.008 25.021 70.993 24.92C70.77 23.874 70.249 22.918 69.485 22.153L60.683 13.351Z" fill="#EE1D52" />
                <path id="five" d="M68.144 47.17H51.569L70.629 28.107C70.682 28.054 70.941 27.79 71.225 27.362L72.387 25.612V41.859C72.387 43.19 72.006 44.477 71.283 45.585C71.128 45.806 70.708 46.318 69.907 46.678C69.38 46.916 68.792 47.071 68.158 47.137L68.144 47.17ZM54.63 45.902L67.751 45.899C68.359 45.864 68.909 45.739 69.387 45.523C69.932 45.279 70.189 44.94 70.235 44.874C70.81 43.992 71.12 42.944 71.12 41.859V29.41L54.63 45.902Z" fill="#EE1D52" />
                <path id="four" d="M55.348 59.739C55.025 59.739 54.581 59.691 54.078 59.501H54.077C53.035 59.108 52.324 58.439 52.192 58.309L40.761 46.879H67.718C67.792 46.882 68.165 46.877 68.662 46.775L70.732 46.349L59.239 57.847C58.299 58.786 57.118 59.427 55.822 59.701C55.736 59.716 55.571 59.739 55.348 59.739ZM54.524 58.316C55.101 58.532 55.534 58.465 55.581 58.456C56.614 58.238 57.575 57.715 58.341 56.949L67.142 48.148H43.823L53.083 57.407C53.144 57.467 53.705 58.005 54.524 58.316Z" fill="#EE1D52" />
                <path id="three" d="M54.874 59.853H38.636C37.306 59.853 36.017 59.47 34.906 58.747L34.889 58.734C34.731 58.623 34.189 58.199 33.816 57.377C33.336 56.314 33.325 55.302 33.325 55.191V39.034L52.385 58.091C52.401 58.108 52.664 58.38 53.131 58.69L54.874 59.853ZM35.61 57.692C36.511 58.276 37.557 58.585 38.636 58.585H51.086L34.593 42.095V55.19C34.593 55.225 34.595 56.02 34.971 56.853C35.211 57.383 35.546 57.644 35.61 57.692Z" fill="#EE1D52" />
                <path id="two" d="M34.138 58.192L22.648 46.705C21.707 45.762 21.066 44.58 20.793 43.287C20.748 43.016 20.684 42.356 20.993 41.54C21.388 40.5 22.053 39.79 22.182 39.658L22.189 39.65L33.615 28.228V55.183C33.615 55.201 33.609 55.584 33.721 56.132L34.138 58.192ZM23.089 40.545L23.087 40.547C23.027 40.608 22.489 41.169 22.178 41.99C21.968 42.545 22.025 42.972 22.038 43.052C22.255 44.079 22.777 45.041 23.544 45.809L32.346 54.61V31.288L23.089 40.545Z" fill="#EE1D52" />
                <path id="one" d="M20.642 42.356V26.1C20.642 24.77 21.023 23.481 21.746 22.372L21.759 22.353C21.87 22.195 22.295 21.653 23.119 21.279C24.177 20.803 25.187 20.789 25.298 20.789H41.46L22.4 39.85C22.35 39.9 22.09 40.164 21.805 40.596L20.642 42.356ZM22.801 23.076C22.217 23.976 21.909 25.022 21.909 26.101V38.548L38.399 22.058H25.304C25.265 22.058 24.47 22.062 23.641 22.435C23.111 22.675 22.848 23.01 22.801 23.076Z" fill="#EE1D52" />
            </g>
        </g>
    </g>

    <defs>
        <style>


      #all-tok {
        opacity: 0;
        transform-box: fill-box;
        transform-origin: center;
        animation: signIn 6s ease-in-out infinite;
      }

      @keyframes signIn {
        0%,
        50% {
          opacity: 1;
          transform: translate(110px, 0px);
        }

        60% {
          opacity: 1;
          transform: translate(228px, 0px);
        }

        75% {
          opacity: 1;
          transform: translate(0px, 0px);
        }

        75%,
        98% {
          opacity: 1;
          transform: translate(0px, 0px);
        }

        100% {
          opacity: 0;
        }
      }

      #one,
      #two,
      #three,
      #four,
      #five,
      #six {
        transform-box: fill-box;
        transform-origin: center;
      }

      /* One */

      #one {
        animation: slideIn1 6s ease-out infinite;
      }

      @keyframes slideIn1 {
        0% {
          opacity: 0;
          transform: translate(0px, 15px);
        }

        3.5% {
          opacity: 1;
          transform: translate(0px, 0px);
        }

        3.5%,
        100% {
          opacity: 1;
          transform: translate(0px, 0px);
        }
      }

      /* Two */

      #two {
        animation: slideIn2 6s ease-out infinite;
      }

      @keyframes slideIn2 {
        0%,
        3.5% {
          opacity: 0;
          transform: translate(15px, 0px);
        }

        7% {
          opacity: 1;
          transform: translate(0px, 0px);
        }

        7%,
        100% {
          opacity: 1;
          transform: translate(0px, 0px);
        }
      }

      /* Three */

      #three {
        animation: slideIn3 6s ease-out infinite;
      }

      @keyframes slideIn3 {
        0%,
        7% {
          opacity: 0;
          transform: translate(15px, -15px);
        }

        10.5% {
          opacity: 1;
          transform: translate(0px, 0px);
        }

        10.5%,
        100% {
          opacity: 1;
          transform: translate(0px, 0px);
        }
      }

      /* Four */

      #four {
        animation: slideIn4 6s ease-out infinite;
      }

      @keyframes slideIn4 {
        0%,
        10.5% {
          opacity: 0;
          transform: translate(0px, -15px);
        }

        14% {
          opacity: 1;
          transform: translate(0px, 0px);
        }

        14%,
        100% {
          opacity: 1;
          transform: translate(0px, 0px);
        }
      }

      /* Five */

      #five {
        animation: slideIn5 6s ease-out infinite;
      }

      @keyframes slideIn5 {
        0%,
        14% {
          opacity: 0;
          transform: translate(-15px, -15px);
        }

        17.5% {
          opacity: 1;
          transform: translate(0px, 0px);
        }

        17.5%,
        100% {
          opacity: 1;
          transform: translate(0px, 0px);
        }
      }

      /* Six */

      #six {
        animation: slideIn6 6s ease-out infinite;
      }

      @keyframes slideIn6 {
        0%,
        17.5% {
          opacity: 0;
          transform: translate(-15px, 0px);
        }

        21% {
          opacity: 1;
          transform: translate(0px, 0px);
        }

        21%,
        100% {
          opacity: 1;
          transform: translate(0px, 0px);
        }
      }

      /* Seven */

      #seven {
        animation: slideIn7 6s ease-out infinite;
      }

      @keyframes slideIn7 {
        0%,
        21% {
          opacity: 0;
          transform: translate(-15px, 15px);
        }

        24.5% {
          opacity: 1;
          transform: translate(0px, 0px);
        }

        24.5%,
        100% {
          opacity: 1;
          transform: translate(0px, 0px);
        }
      }

      #front {
        animation: reverseFront 6s ease-out infinite;
      }

      @keyframes reverseFront {
        0%,
        26% {
          transform: translate(0px, 0px);
        }

        30.5%,
        33% {
          transform: translate(-10px, -4px);
        }

        38% {
          transform: translate(0px, 0px);
        }

        38%,
        100% {
          transform: translate(0px, 0px);
        }
      }

      #mid {
        opacity: 0;
        animation: appearMid 6s ease-out infinite;
      }

      @keyframes appearMid {
        0%,
        33% {
          opacity: 0;
        }
        35.5% {
          opacity: 1;
        }

        35.5% {
          opacity: 1;
        }

        36%,
        97.5% {
          opacity: 1;
        }

        100% {
          opacity: 0;
        }
      }

      #back {
        opacity: 0;
        animation: appearBack 6s ease-out infinite;
      }

      @keyframes appearBack {
        0%,
        35.5% {
          opacity: 0;
        }
        38% {
          opacity: 1;
        }

        38% {
          opacity: 1;
        }

        36%,
        97.5% {
          opacity: 1;
        }

        100% {
          opacity: 0;
        }
      }

      #text {
        clip-path: polygon(100% 0, 100% 0, 100% 100%, 100% 100%);
        animation: clipIn 6s ease-in-out infinite;
      }

      @keyframes clipIn {
        0%,
        60% {
          clip-path: polygon(100% 0, 100% 0, 100% 100%, 100% 100%);
        }

        75% {
          clip-path: polygon(100% 0, 0 0, 0 100%, 100% 100%);
        }

        75%,
        98% {
          clip-path: polygon(100% 0, 0 0, 0 100%, 100% 100%);
        }

        100% {
          clip-path: polygon(100% 0, 100% 0, 100% 100%, 100% 100%);
        }
      }
        </style>
    </defs>
</svg>